<svg width="318" height="318" viewBox="0 0 318 318" fill="none" xmlns="http://www.w3.org/2000/svg">
<g filter="url(#filter0_d_904_8)">
<circle cx="159" cy="155" r="155" fill="#D9D9D9"/>
</g>
<path d="M81.9594 198.477L103.813 176.624L99.879 162.638V155.208L105.998 148.215H112.554L119.11 158.267L123.043 166.571H129.162L153.201 158.267H166.75H180.736L201.278 162.638L216.575 169.194L229.25 178.809L241.05 194.544L244.547 218.145L237.554 235.19L220.945 240.872H92.4489L85.4559 235.19L78.4629 228.197L74.0923 218.145V209.841L81.9594 198.477Z" fill="#606060" stroke="#606060" stroke-width="8" stroke-linecap="round"/>
<path d="M97.7766 220.695C92.3845 220.695 88.1616 215.627 88.1616 209.156C88.1616 202.687 92.3859 197.617 97.7766 197.617C103.169 197.617 107.392 202.685 107.392 209.156C107.392 215.626 103.169 220.695 97.7766 220.695ZM97.7766 205.31C97.0986 205.31 95.8542 206.771 95.8542 209.156C95.8542 211.542 97.1 213.003 97.7766 213.003C98.4546 213.003 99.6991 211.542 99.6991 209.156C99.6991 206.772 98.4546 205.31 97.7766 205.31Z" fill="#E5E5E5"/>
<path d="M217.177 247.63H94.9088C90.2688 247.63 85.5228 245.943 80.8074 242.619C72.8163 236.977 67.956 228.686 67.1231 219.272C66.2763 209.701 69.8268 200.127 76.8663 193.002C85.5481 184.169 94.856 175.976 94.9481 175.896C95.6415 175.374 96.3111 174.886 96.9668 174.424C95.6694 171.849 94.7277 168.976 94.1989 165.946C91.9961 153.192 97.7648 141.916 107.332 140.263C116.572 138.678 125.424 146.669 128.039 158.637C141.753 153.884 156.164 151.476 170.95 151.476H182.45C220.603 151.476 251.643 179.618 251.643 214.208V216.168C251.638 233.516 236.179 247.63 217.177 247.63L217.177 247.63ZM99.7838 181.869C99.802 181.869 90.7688 189.829 82.3453 198.404C76.8892 203.925 74.1367 211.282 74.7838 218.596C75.4144 225.721 79.1296 232.023 85.2399 236.336C88.6314 238.727 91.8846 239.94 94.9078 239.94L217.179 239.938C231.941 239.938 243.948 229.276 243.948 216.169V214.209C243.948 183.86 216.359 159.169 182.448 159.169H170.948C155.471 159.169 140.438 161.968 126.266 167.482C125.107 167.937 123.8 167.796 122.76 167.114C121.72 166.432 121.075 165.289 121.026 164.045C120.994 163.179 120.898 162.283 120.738 161.386C119.315 153.147 113.794 146.944 108.639 147.842C103.501 148.731 100.357 156.418 101.775 164.628C102.356 167.941 103.565 170.963 105.273 173.361C105.885 174.222 106.118 175.296 105.915 176.333C105.712 177.369 105.09 178.276 104.199 178.841C102.702 179.79 101.205 180.811 99.7834 181.869H99.7862L99.7838 181.869Z" fill="#606060"/>
<path d="M159.32 132.233H136.237C134.112 132.233 132.39 130.512 132.39 128.387V82.2331C132.39 80.1084 134.112 78.3867 136.237 78.3867H159.32C161.444 78.3867 163.166 80.1083 163.166 82.2331V128.387C163.166 130.51 161.443 132.233 159.32 132.233ZM140.083 124.541H155.474V86.0799H140.083V124.541Z" fill="#606060"/>
<path d="M167.005 86.0796H128.545C126.42 86.0796 124.698 84.358 124.698 82.2331C124.698 80.1083 126.42 78.3867 128.545 78.3867H167.005C169.13 78.3867 170.852 80.1083 170.852 82.2331C170.85 84.3565 169.129 86.0796 167.005 86.0796Z" fill="#606060"/>
<path d="M147.777 86.0779C145.652 86.0779 143.93 84.3563 143.93 82.2314V66.8464C143.93 64.7217 145.652 63 147.777 63C149.901 63 151.623 64.7215 151.623 66.8464V82.2314C151.623 84.3547 149.9 86.0779 147.777 86.0779Z" fill="#606060"/>
<path d="M147.781 174.539C145.656 174.539 143.934 172.818 143.934 170.693V128.385C143.934 126.261 145.656 124.539 147.781 124.539C149.905 124.539 151.627 126.261 151.627 128.385V170.693C151.627 172.816 149.904 174.539 147.781 174.539Z" fill="#606060"/>
<path d="M159.313 70.6929H136.235C134.11 70.6929 132.389 68.9713 132.389 66.8464C132.389 64.7215 134.11 63 136.235 63H159.313C161.437 63 163.159 64.7215 163.159 66.8464C163.159 68.9713 161.436 70.6929 159.313 70.6929Z" fill="#606060"/>
<rect x="139.215" y="85.7148" width="17.4825" height="41.958" fill="#606060"/>
<path d="M147.519 156.082V172.253" stroke="#E5E5E5" stroke-width="8" stroke-linecap="round"/>
<defs>
<filter id="filter0_d_904_8" x="0" y="0" width="318" height="318" filterUnits="userSpaceOnUse" color-interpolation-filters="sRGB">
<feFlood flood-opacity="0" result="BackgroundImageFix"/>
<feColorMatrix in="SourceAlpha" type="matrix" values="0 0 0 0 0 0 0 0 0 0 0 0 0 0 0 0 0 0 127 0" result="hardAlpha"/>
<feOffset dy="4"/>
<feGaussianBlur stdDeviation="2"/>
<feComposite in2="hardAlpha" operator="out"/>
<feColorMatrix type="matrix" values="0 0 0 0 0 0 0 0 0 0 0 0 0 0 0 0 0 0 0.25 0"/>
<feBlend mode="normal" in2="BackgroundImageFix" result="effect1_dropShadow_904_8"/>
<feBlend mode="normal" in="SourceGraphic" in2="effect1_dropShadow_904_8" result="shape"/>
</filter>
</defs>
</svg>
