<svg width="28" height="28" viewBox="0 0 28 28" fill="none" xmlns="http://www.w3.org/2000/svg">
<path d="M11.375 19.25C11.375 20.2164 10.5914 21 9.625 21C8.6586 21 7.875 20.2164 7.875 19.25C7.875 18.2836 8.6586 17.5 9.625 17.5C10.5914 17.5 11.375 18.2836 11.375 19.25Z" fill="#D9D9D9"/>
<path d="M17.2375 17.2287L16.4412 17.0362V17.0364C16.3295 16.6772 16.1859 16.3288 16.0125 15.995L16.4324 15.295C16.6062 15.0076 16.6783 14.6702 16.6371 14.337C16.5959 14.0036 16.4435 13.6938 16.2051 13.4575L15.4176 12.67C15.1812 12.4315 14.8715 12.2791 14.5381 12.2379C14.2049 12.1967 13.8674 12.2688 13.5801 12.4426L12.8801 12.8625C12.5463 12.6891 12.1978 12.5455 11.8387 12.4338L11.6461 11.6375H11.6463C11.5639 11.3123 11.3754 11.024 11.1107 10.818C10.8461 10.6121 10.5203 10.5002 10.1849 10.5H9.06502C8.72967 10.5002 8.40387 10.6121 8.13922 10.818C7.87457 11.024 7.6861 11.3123 7.60367 11.6375L7.41109 12.4338H7.41129C7.05211 12.5455 6.70369 12.6891 6.36989 12.8625L5.66989 12.4426C5.38258 12.2688 5.04509 12.1967 4.71189 12.2379C4.37849 12.2791 4.06874 12.4315 3.83239 12.67L3.04489 13.4575C2.80641 13.6938 2.65407 14.0036 2.61286 14.337C2.57165 14.6702 2.64372 15.0077 2.81755 15.295L3.23747 15.995C3.06403 16.3287 2.92048 16.6772 2.80876 17.0364L2.01246 17.2289V17.2287C1.68726 17.3112 1.39896 17.4996 1.19291 17.7643C0.987049 18.0289 0.875134 18.3547 0.874939 18.6901V19.81C0.875134 20.1453 0.987049 20.4711 1.19291 20.7358C1.39896 21.0004 1.68724 21.1889 2.01246 21.2713L2.80876 21.4639V21.4637C2.92048 21.8229 3.06403 22.1713 3.23747 22.5051L2.81755 23.2051C2.64372 23.4924 2.57165 23.8299 2.61286 24.1631C2.65407 24.4965 2.80641 24.8063 3.04489 25.0426L3.83239 25.8301C4.06872 26.0686 4.37849 26.2209 4.71189 26.2621C5.04509 26.3034 5.38259 26.2313 5.66989 26.0575L6.36989 25.6375C6.70368 25.811 7.05214 25.9545 7.41129 26.0663L7.60387 26.8625H7.60367C7.68609 27.1877 7.87457 27.476 8.13922 27.6821C8.40387 27.888 8.72967 27.9999 9.06502 28.0001H10.1849C10.5203 27.9999 10.8461 27.888 11.1107 27.6821C11.3754 27.476 11.5638 27.1878 11.6463 26.8625L11.8389 26.0663H11.8387C12.1978 25.9545 12.5463 25.811 12.8801 25.6375L13.5801 26.0575C13.8674 26.2313 14.2049 26.3034 14.5381 26.2621C14.8715 26.2209 15.1812 26.0686 15.4176 25.8301L16.2051 25.0426C16.4435 24.8063 16.5959 24.4965 16.6371 24.1631C16.6783 23.8299 16.6062 23.4924 16.4324 23.2051L16.0125 22.5051C16.1859 22.1713 16.3295 21.8229 16.4412 21.4637L17.2375 21.2711V21.2713C17.5619 21.1877 17.8496 20.9991 18.0554 20.7346C18.2611 20.4702 18.3736 20.1452 18.375 19.81V18.6901C18.3736 18.355 18.2611 18.03 18.0554 17.7655C17.8496 17.5011 17.5619 17.3124 17.2375 17.2288V17.2287ZM9.62499 22.7502C8.69669 22.7502 7.80644 22.3815 7.15019 21.725C6.49374 21.0688 6.12499 20.1785 6.12499 19.2502C6.12499 18.3219 6.49374 17.4317 7.15019 16.7754C7.80644 16.119 8.69669 15.7502 9.62499 15.7502C10.5533 15.7502 11.4435 16.119 12.0998 16.7754C12.7562 17.4317 13.125 18.3219 13.125 19.2502C13.1252 20.1785 12.7566 21.069 12.1002 21.7254C11.4437 22.3819 10.5533 22.7504 9.62499 22.7502Z" fill="#D9D9D9"/>
<path d="M20.51 8.74823C20.51 9.44413 19.946 10.0082 19.2501 10.0082C18.5542 10.0082 17.9901 9.44413 17.9901 8.74823C17.9901 8.05233 18.5542 7.48828 19.2501 7.48828C19.946 7.48828 20.51 8.05233 20.51 8.74823Z" fill="#D9D9D9"/>
<path d="M26.04 6.85996L25.3837 6.70254C25.2919 6.41407 25.1779 6.13319 25.0425 5.86249L25.3749 5.29374C25.5441 5.01913 25.6161 4.69569 25.5796 4.37519C25.5431 4.05488 25.4001 3.75584 25.1738 3.52619L24.4738 2.82619C24.2454 2.6008 23.9488 2.45783 23.6302 2.41994C23.3118 2.38186 22.9898 2.451 22.715 2.61623L22.1374 2.95744C21.8667 2.82209 21.5859 2.70803 21.2974 2.61623L21.1399 1.95998C21.0624 1.64983 20.8833 1.37443 20.6311 1.17793C20.379 0.981251 20.0684 0.874611 19.7487 0.875001H18.7511C18.4314 0.87461 18.1208 0.981251 17.8687 1.17793C17.6165 1.37442 17.4374 1.64981 17.3599 1.95998L17.2025 2.61623C16.914 2.70803 16.6331 2.82209 16.3624 2.95744L15.7937 2.62502C15.5196 2.45393 15.1958 2.38049 14.8747 2.41701C14.5538 2.45373 14.2546 2.59787 14.0261 2.82619L13.3261 3.52619C13.0987 3.75334 12.9546 4.05019 12.9165 4.36914C12.8782 4.68828 12.9487 5.01074 13.1161 5.28494L13.4573 5.86249C13.322 6.1332 13.2079 6.41404 13.1161 6.70254L12.4599 6.85996C12.1497 6.9375 11.8743 7.1166 11.6778 7.36876C11.4811 7.62091 11.3745 7.93146 11.3749 8.25116V8.97751C12.1768 9.29294 12.8216 9.91246 13.1686 10.7012C13.7569 10.4705 14.3995 10.4164 15.018 10.5453C15.6366 10.6744 16.2042 10.9808 16.651 11.4276L17.4473 12.2151C17.894 12.6637 18.2006 13.2328 18.3296 13.8528C18.4585 14.4727 18.4044 15.1166 18.1737 15.7063C18.6448 15.9098 19.0595 16.225 19.3811 16.625H19.7487C20.0684 16.6254 20.3789 16.5188 20.6311 16.3221C20.8832 16.1256 21.0623 15.8502 21.1399 15.54L21.2973 14.8838C21.5858 14.792 21.8667 14.6779 22.1374 14.5426L22.7061 14.875C22.9801 15.0461 23.304 15.1195 23.6251 15.083C23.946 15.0463 24.2452 14.9021 24.4737 14.6738L25.1737 13.9738C25.3991 13.7455 25.5421 13.4488 25.58 13.1303C25.6181 12.8119 25.5489 12.4898 25.3837 12.215L25.0425 11.6375C25.1778 11.3668 25.2919 11.0859 25.3837 10.7974L26.0399 10.64C26.3501 10.5625 26.6255 10.3834 26.822 10.1312C27.0187 9.87904 27.1253 9.56849 27.1249 9.24879V8.25114C27.1253 7.93142 27.0187 7.62089 26.822 7.36874C26.6255 7.11659 26.3501 6.93749 26.0399 6.85994L26.04 6.85996ZM19.25 11.76C18.4517 11.76 17.6861 11.443 17.1217 10.8783C16.557 10.3139 16.24 9.54821 16.24 8.75001C16.24 7.95181 16.557 7.18616 17.1217 6.62171C17.6861 6.05706 18.4518 5.74006 19.25 5.74006C20.0482 5.74006 20.8138 6.05705 21.3783 6.62171C21.9429 7.18616 22.2599 7.95181 22.2599 8.75001C22.2599 9.54821 21.9429 10.3139 21.3783 10.8783C20.8138 11.443 20.0482 11.76 19.25 11.76Z" fill="#D9D9D9"/>
</svg>
