<svg width="30" height="31" viewBox="0 0 30 31" fill="none" xmlns="http://www.w3.org/2000/svg">
<path fill-rule="evenodd" clip-rule="evenodd" d="M29.2008 5.71724C29.192 5.71599 29.183 5.71599 29.1742 5.71462C29.1564 5.712 29.139 5.70802 29.1218 5.70414C29.0703 5.68967 29.0211 5.66734 28.9772 5.6359C28.9626 5.62542 28.9487 5.61482 28.9353 5.60309C28.9288 5.59784 28.9223 5.59124 28.9159 5.58474L24.9186 1.58687C24.9024 1.56978 24.8979 1.56579 24.883 1.54745C24.8499 1.50541 24.8242 1.45824 24.8074 1.40697C24.7877 1.34795 24.7803 1.28494 24.7858 1.22331C24.7958 1.10641 24.851 0.996239 24.938 0.918779C24.9714 0.88984 25.0089 0.864999 25.0493 0.846542C25.0897 0.826946 25.1328 0.815098 25.1769 0.808488C25.2298 0.800627 25.284 0.801994 25.3363 0.812476C25.3974 0.825578 25.4558 0.850531 25.5069 0.885962C25.5216 0.896444 25.5355 0.908293 25.5488 0.918775C25.5554 0.925383 25.5617 0.931877 25.5683 0.938485L29.5656 4.9349C29.5819 4.95199 29.5863 4.95587 29.601 4.97433C29.6343 5.01762 29.66 5.0649 29.6768 5.11606C29.6908 5.1581 29.6987 5.20139 29.7 5.24594C29.7035 5.37195 29.6543 5.49671 29.5656 5.58465C29.5341 5.6161 29.498 5.64367 29.4588 5.66463C29.4118 5.68958 29.3602 5.70667 29.3073 5.71453C29.2897 5.71715 29.272 5.71852 29.2542 5.71852C29.2452 5.71978 29.2363 5.71852 29.2274 5.71852C29.2184 5.71852 29.2097 5.71852 29.2008 5.71715L29.2008 5.71724ZM24.3186 7.96159L22.5245 6.20156L26.0288 2.69718L27.8057 4.47431L24.3186 7.96159ZM23.5238 9.78599L23.9688 10.2309L22.4219 11.7783C22.237 11.5907 22.0504 11.4057 21.8621 11.2232C21.8474 11.2088 21.8321 11.1957 21.8158 11.1838C21.777 11.1563 21.7336 11.1339 21.6878 11.1195C21.6421 11.1038 21.594 11.0959 21.5459 11.0959C21.4125 11.0959 21.2831 11.1563 21.1966 11.2573C21.1679 11.2914 21.1441 11.3282 21.1263 11.3689C21.1034 11.42 21.0901 11.4752 21.0871 11.5317C21.084 11.5921 21.0928 11.6523 21.1128 11.7088C21.1275 11.7508 21.1483 11.7902 21.1741 11.8256C21.186 11.8427 21.199 11.8572 21.2127 11.8715C21.3961 12.0606 21.5811 12.2469 21.768 12.432L20.4217 13.7787C20.1368 13.4898 19.8528 13.2025 19.562 12.9203C19.5481 12.9072 19.5337 12.8953 19.5186 12.8835C19.4765 12.8533 19.4296 12.8297 19.3798 12.8152C19.3347 12.8008 19.2874 12.7943 19.2404 12.7955C19.1978 12.7955 19.1555 12.8021 19.1148 12.8152C18.9874 12.8533 18.8808 12.9479 18.8271 13.0686C18.8043 13.121 18.791 13.1775 18.7884 13.2339C18.7857 13.2943 18.7952 13.356 18.8165 13.4137C18.8329 13.4584 18.8561 13.5004 18.885 13.5371C18.8967 13.5516 18.9093 13.5661 18.9226 13.5792C19.2055 13.8626 19.4852 14.1488 19.7692 14.4309L18.4246 15.775C18.2397 15.5886 18.0531 15.4036 17.8646 15.2198C17.8499 15.2067 17.8348 15.1935 17.8185 15.1817C17.7795 15.1528 17.7362 15.1305 17.6904 15.1161C17.6447 15.1016 17.5965 15.0938 17.5485 15.0938C17.5044 15.0938 17.4603 15.1004 17.418 15.1135C17.2902 15.1502 17.1831 15.2447 17.1287 15.3668C17.1059 15.4179 17.0926 15.4731 17.0898 15.5296C17.0866 15.5886 17.0955 15.6502 17.1155 15.7067C17.1302 15.7487 17.1509 15.7881 17.1768 15.8235C17.1885 15.8392 17.2016 15.8551 17.2152 15.8694C17.3986 16.0572 17.5838 16.2448 17.7705 16.4299L16.4243 17.7752C16.1392 17.4877 15.8553 17.199 15.5647 16.9182C15.5508 16.9051 15.5364 16.8932 15.521 16.8814C15.4792 16.8512 15.4322 16.8276 15.3825 16.8119C15.3418 16.8 15.2995 16.7934 15.257 16.7922C15.1239 16.7908 14.994 16.8486 14.9058 16.9484C14.8746 16.9838 14.8488 17.0231 14.8298 17.0664C14.8068 17.1189 14.7937 17.1741 14.7911 17.2305C14.7883 17.2922 14.7979 17.3539 14.8191 17.4116C14.8354 17.4563 14.8586 17.497 14.8877 17.535C14.8993 17.5495 14.9119 17.5639 14.9252 17.577C15.2081 17.8593 15.4879 18.1466 15.7719 18.4275L14.4273 19.7729C14.2422 19.5865 14.0555 19.4014 13.8673 19.2177C13.8526 19.2032 13.8373 19.1901 13.8211 19.1796C13.7821 19.1507 13.7388 19.1283 13.693 19.114C13.6473 19.0982 13.5992 19.0917 13.5511 19.0917C13.4178 19.0917 13.2884 19.1507 13.2017 19.2517C13.1731 19.2859 13.1494 19.324 13.1314 19.3633C13.1085 19.4145 13.0953 19.4709 13.0923 19.5261C13.0891 19.5865 13.0979 19.6469 13.118 19.7046C13.1329 19.7453 13.1536 19.7846 13.1795 19.82C13.1912 19.8371 13.2042 19.8516 13.2179 19.8673C13.4012 20.0551 13.5865 20.2413 13.7732 20.4265L12.427 21.7731C12.1419 21.4856 11.858 21.1969 11.5672 20.9147C11.5532 20.9016 11.5391 20.8897 11.5237 20.878C11.4857 20.8504 11.4433 20.8293 11.3986 20.8136C11.3404 20.7939 11.2784 20.7874 11.2172 20.7913C11.1608 20.7953 11.1052 20.811 11.0542 20.8346C10.9341 20.8924 10.8433 21.0013 10.8089 21.1299C10.7978 21.1719 10.7926 21.214 10.7933 21.2573C10.794 21.3032 10.8021 21.3505 10.8171 21.395C10.8335 21.4449 10.8585 21.4908 10.8902 21.5316C10.902 21.5474 10.9146 21.5605 10.9277 21.5749C11.2107 21.857 11.4906 22.1432 11.7745 22.4254C11.7745 22.4254 10.8431 23.3573 10.4259 23.7746C10.3165 23.8835 10.1392 23.8835 10.0298 23.7746C9.38816 23.1328 7.37088 21.1156 6.72933 20.4735C6.67681 20.4211 6.6473 20.3503 6.6473 20.2754C6.6473 20.2019 6.67681 20.1297 6.72933 20.0772C8.41335 18.3933 20.2723 6.53479 20.2723 6.53479L19.1225 5.38498C19.115 5.37712 19.1072 5.36926 19.1 5.36014C19.0858 5.3443 19.0726 5.32733 19.0608 5.30887C19.0134 5.23413 18.9878 5.14743 18.9878 5.05959C18.9878 4.99396 19.0022 4.92834 19.0294 4.86921C19.0612 4.79971 19.1106 4.73796 19.1719 4.69204C19.207 4.66584 19.2458 4.64476 19.2867 4.62904C19.3278 4.61457 19.3709 4.60545 19.4145 4.60147C19.4689 4.59748 19.5242 4.60409 19.5767 4.61856C19.6291 4.63428 19.6787 4.65923 19.7226 4.69204C19.7459 4.70913 19.7508 4.71562 19.772 4.73534L25.7681 10.7308C25.7879 10.7519 25.7935 10.7572 25.811 10.7807C25.8437 10.824 25.8686 10.8739 25.8841 10.9265C25.8964 10.9685 25.9026 11.0118 25.9026 11.0563C25.9026 11.0997 25.8964 11.143 25.8841 11.185C25.8499 11.3019 25.7696 11.4016 25.6634 11.4593C25.6154 11.4855 25.5628 11.5026 25.5087 11.5105C25.4797 11.5145 25.4723 11.5145 25.4433 11.5157C25.4322 11.5145 25.4214 11.5145 25.4105 11.5145C25.3815 11.5118 25.3741 11.5118 25.3456 11.5052C25.2922 11.4935 25.2409 11.4724 25.1948 11.4422C25.1764 11.4305 25.159 11.4173 25.1425 11.4029C25.1342 11.3963 25.1264 11.3885 25.1184 11.3806L23.5238 9.78599ZM9.0148 24.0581L6.44507 21.4882C6.44507 21.4882 6.04482 21.8885 5.79373 22.1405C5.7412 22.1931 5.71181 22.2639 5.71181 22.3374C5.71181 22.4121 5.7412 22.4831 5.79373 22.5355C6.27258 23.0146 7.48869 24.2313 7.96743 24.709C8.01995 24.7629 8.09127 24.7917 8.16556 24.7917C8.23973 24.7917 8.31094 24.7629 8.36346 24.709C8.5805 24.4926 8.79778 24.276 9.01481 24.0581L9.0148 24.0581ZM6.90559 24.9467L5.5564 23.5974C5.5564 23.5974 5.29606 23.8585 5.1049 24.0489C5.05249 24.1014 5.02298 24.1735 5.02298 24.247C5.02298 24.3219 5.05249 24.3927 5.1049 24.4452C5.36045 24.7011 5.8025 25.1435 6.05806 25.3981C6.11059 25.4506 6.18168 25.4808 6.25596 25.4808C6.33025 25.4808 6.40157 25.4506 6.45409 25.3981C6.60448 25.2485 6.75498 25.0975 6.90559 24.9467L6.90559 24.9467ZM5.25665 25.8969L1.08436 30.068C1.07707 30.0759 1.07 30.0824 1.06248 30.089C1.04733 30.1021 1.03149 30.1139 1.01475 30.1256C0.964731 30.1585 0.908108 30.1822 0.849203 30.194C0.829493 30.1979 0.809551 30.2005 0.789613 30.2019C0.779587 30.2031 0.769563 30.2031 0.759538 30.2031C0.749513 30.2031 0.739485 30.2019 0.72946 30.2019C0.703028 30.1993 0.696193 30.1993 0.669873 30.194C0.610971 30.1822 0.554348 30.1585 0.504444 30.1256C0.403728 30.0588 0.332634 29.9525 0.308936 29.8331C0.301189 29.7937 0.298568 29.7542 0.301075 29.7136C0.303695 29.6743 0.31167 29.6335 0.324545 29.5954C0.340723 29.5482 0.364648 29.5036 0.395069 29.4642C0.411361 29.4432 0.416487 29.438 0.434717 29.4196L4.60701 25.2473L5.25665 25.8969Z" fill="#D9D9D9"/>
</svg>
